<?xml version="1.0" standalone="no"?>
<!DOCTYPE svg PUBLIC "-//W3C//DTD SVG 20010904//EN"
 "http://www.w3.org/TR/2001/REC-SVG-20010904/DTD/svg10.dtd">
<svg version="1.0" xmlns="http://www.w3.org/2000/svg"
 width="898.000000pt" height="376.000000pt" viewBox="0 0 898.000000 376.000000"
 preserveAspectRatio="xMidYMid meet">

<g transform="translate(0.000000,376.000000) scale(0.100000,-0.100000)"
fill="#000000" stroke="none">
<path d="M3285 3460 c-3 -5 -18 -10 -33 -10 -15 0 -40 -7 -56 -15 -15 -8 -33
-15 -38 -15 -36 0 -318 -145 -360 -185 -45 -43 -108 -119 -108 -130 0 -5 12 7
28 26 65 82 128 134 220 180 52 27 101 49 108 49 8 0 14 5 14 10 0 6 7 10 15
10 8 0 23 4 33 10 26 15 130 47 192 59 30 6 64 13 75 15 11 2 -3 4 -32 5 -28
0 -55 -3 -58 -9z"/>
<path d="M3478 3463 c17 -2 47 -2 65 0 17 2 3 4 -33 4 -36 0 -50 -2 -32 -4z"/>
<path d="M3540 3380 c-138 -17 -373 -115 -511 -212 -40 -28 -107 -84 -150
-126 -44 -41 -79 -71 -79 -66 0 23 148 222 173 232 4 2 14 10 21 18 8 8 21 14
28 14 17 0 58 29 41 30 -6 0 -15 -4 -18 -10 -3 -5 -14 -10 -23 -10 -49 -1
-256 -257 -236 -292 4 -7 3 -9 -1 -5 -12 11 -64 -74 -141 -229 -222 -450 -165
-945 155 -1334 77 -95 144 -160 202 -200 31 -22 59 -47 63 -56 4 -10 10 -76
13 -148 7 -140 9 -144 71 -178 19 -10 52 -50 85 -100 38 -59 64 -89 88 -100
81 -38 355 -63 528 -48 201 18 308 63 355 150 24 45 50 73 126 138 35 30 35
31 41 135 8 127 6 124 168 292 266 276 352 438 387 735 32 271 0 486 -102 695
-81 167 -239 347 -405 465 -89 62 -244 142 -320 164 -142 42 -419 64 -559 46z
m356 -125 c428 -74 761 -384 871 -810 26 -101 28 -124 27 -280 0 -151 -4 -181
-27 -268 -31 -117 -108 -283 -173 -374 -141 -198 -360 -348 -602 -415 -64 -18
-106 -22 -252 -22 -153 -1 -186 2 -260 22 -189 52 -347 142 -481 276 -375 374
-435 961 -143 1404 229 347 647 534 1040 467z m-677 -2211 c33 -43 23 -134
-18 -149 -25 -10 -41 24 -41 90 0 84 22 106 59 59z m1061 -14 c6 -12 10 -42 8
-68 -3 -39 -6 -47 -25 -50 -13 -2 -27 5 -37 20 -19 27 -21 104 -3 111 26 11
47 6 57 -13z m-937 -34 c14 -11 16 -19 7 -40 -15 -41 -12 -85 9 -146 15 -43
21 -51 27 -36 4 10 2 33 -4 50 -15 40 -15 93 -2 101 20 12 27 -5 20 -47 -5
-23 -5 -49 -2 -57 10 -26 26 47 24 117 -1 72 15 85 20 15 l3 -48 14 43 c8 23
20 42 26 42 14 0 28 -70 19 -94 -3 -9 -1 -16 5 -16 6 0 11 12 11 28 1 27 1 27
15 -7 8 -18 15 -58 15 -87 0 -88 34 -61 65 54 10 34 21 62 25 62 4 0 10 14 14
30 4 21 11 30 25 30 15 0 22 -10 29 -42 6 -27 10 -34 11 -19 1 20 3 21 16 11
10 -8 15 -31 16 -64 1 -46 2 -48 11 -23 5 15 13 27 18 27 4 0 13 20 20 45 17
61 26 64 34 11 4 -25 14 -50 21 -56 10 -8 15 -31 15 -63 l0 -50 23 24 c13 13
31 53 41 89 9 36 20 76 24 89 4 14 11 24 17 23 12 -1 35 -103 38 -169 1 -29 5
-53 10 -53 4 0 7 8 8 18 0 10 3 12 6 5 8 -20 23 -15 23 7 0 17 39 190 45 197
1 2 16 6 35 9 l33 7 -7 -84 c-15 -173 -44 -233 -124 -257 -120 -36 -502 -41
-627 -8 -75 20 -98 46 -124 134 -21 73 -36 187 -26 202 9 14 57 12 78 -4z
m205 -26 c-3 -22 -23 -28 -24 -7 -1 17 6 27 17 27 6 0 9 -9 7 -20z m236 -17
c-9 -48 -12 -51 -20 -19 -7 30 0 56 16 56 7 0 9 -13 4 -37z m96 23 c0 -8 -4
-18 -10 -21 -5 -3 -10 3 -10 14 0 12 5 21 10 21 6 0 10 -6 10 -14z m-240 -6
c0 -5 -2 -10 -4 -10 -3 0 -8 5 -11 10 -3 6 -1 10 4 10 6 0 11 -4 11 -10z m-40
-54 c0 -42 -9 -68 -21 -60 -10 6 -12 77 -2 87 15 15 23 5 23 -27z m320 7 c-1
-16 -7 -41 -15 -58 -13 -30 -13 -29 -14 28 -1 44 2 57 14 57 10 0 15 -10 15
-27z m135 0 c-11 -46 -25 -51 -25 -10 0 27 4 37 16 37 13 0 15 -6 9 -27z"/>
<path d="M3580 3081 c-177 -38 -321 -118 -451 -250 -100 -101 -123 -146 -28
-55 112 107 188 158 302 203 142 55 249 75 358 68 161 -12 343 -67 452 -137
101 -64 231 -191 287 -278 53 -84 71 -94 34 -19 -59 117 -184 259 -297 336
-184 125 -446 178 -657 132z"/>
<path d="M3582 2695 c-35 -8 -103 -33 -150 -56 -209 -100 -341 -321 -342 -568
0 -161 43 -288 143 -421 32 -41 57 -84 57 -95 0 -27 -56 -94 -89 -107 l-26
-10 40 -35 c22 -19 58 -44 80 -55 l40 -20 -29 24 c-21 18 -27 29 -22 45 7 22
89 103 105 103 4 0 30 -23 57 -51 88 -92 93 -97 114 -112 16 -11 21 -23 18
-48 l-4 -34 -11 25 c-8 17 -12 20 -12 8 -1 -9 -7 -18 -13 -20 -22 -8 -88 14
-88 28 0 16 -16 19 -25 4 -3 -5 -13 -7 -23 -4 -9 2 -6 0 8 -7 14 -6 32 -14 40
-19 37 -18 137 -41 212 -49 217 -21 428 37 602 165 71 52 80 64 42 57 -20 -4
-36 6 -75 45 -28 28 -51 55 -51 61 0 5 16 38 37 73 20 34 46 80 57 100 17 30
27 38 56 40 28 2 36 8 38 27 2 13 -2 34 -8 46 -10 18 -9 36 4 87 30 121 12
279 -46 406 -83 180 -247 319 -433 367 -72 18 -217 18 -303 0z m-170 -569
c223 -80 268 -88 596 -102 l163 -7 28 -41 c39 -57 61 -102 61 -124 0 -23 -68
-123 -123 -180 -215 -221 -589 -229 -803 -17 -46 45 -73 84 -108 156 -41 84
-46 103 -46 161 0 104 40 177 107 197 1 1 58 -19 125 -43z m708 -646 c33 -23
70 -79 70 -104 0 -12 -24 -28 -72 -50 -95 -43 -116 -48 -127 -29 -9 18 -31 9
-31 -12 0 -12 -37 -32 -45 -23 -1 1 -5 17 -9 33 -5 27 2 38 77 118 45 48 88
87 95 87 8 0 27 -9 42 -20z m-265 -81 c15 -15 -9 -25 -75 -32 -53 -6 -166 5
-178 18 -10 9 12 23 43 28 46 8 198 -2 210 -14z m-102 -103 c103 0 108 -1 105
-20 -3 -20 -10 -21 -130 -23 -118 -2 -127 -1 -133 17 -9 29 3 42 28 33 12 -4
71 -8 130 -7z m137 -2 c0 -8 -4 -12 -10 -9 -5 3 -10 10 -10 16 0 5 5 9 10 9 6
0 10 -7 10 -16z"/>
<path d="M4080 1979 c0 -6 -9 -9 -20 -6 -11 3 -20 1 -20 -4 0 -5 13 -9 30 -9
22 0 28 4 24 15 -7 18 -14 20 -14 4z"/>
<path d="M3304 1965 c-7 -18 2 -45 15 -45 12 0 24 37 16 50 -9 15 -25 12 -31
-5z"/>
<path d="M3556 1951 c-44 -48 -23 -171 29 -171 30 0 65 49 65 91 0 31 -39 93
-61 97 -8 1 -23 -6 -33 -17z"/>
<path d="M3844 1946 c-43 -32 -10 -156 44 -164 25 -4 39 24 49 94 4 34 1 46
-16 63 -24 24 -49 27 -77 7z"/>
<path d="M3310 1875 c0 -8 5 -15 10 -15 6 0 10 7 10 15 0 8 -4 15 -10 15 -5 0
-10 -7 -10 -15z"/>
<path d="M4020 1710 c-19 -11 -71 -34 -115 -51 -76 -30 -85 -31 -185 -27 -87
4 -123 11 -207 40 -57 20 -103 32 -103 27 0 -14 87 -66 150 -90 70 -27 208
-36 281 -19 59 14 169 66 209 98 37 30 15 46 -30 22z"/>
<path d="M4962 2785 c0 -16 2 -22 5 -12 2 9 2 23 0 30 -3 6 -5 -1 -5 -18z"/>
<path d="M2542 2760 c-12 -16 -22 -33 -22 -38 0 -5 -6 -22 -14 -38 -20 -42
-31 -98 -17 -90 6 4 11 19 11 32 0 14 15 57 34 95 19 38 33 69 32 69 -1 0 -12
-13 -24 -30z"/>
<path d="M4975 2715 c13 -114 26 -203 35 -229 12 -36 13 -420 1 -462 -5 -17
-11 -60 -15 -95 l-6 -64 15 50 c23 79 37 323 26 473 -5 72 -13 137 -16 143 -4
6 -11 41 -16 78 -5 36 -13 84 -18 106 l-10 40 4 -40z"/>
<path d="M5082 2715 c0 -16 2 -22 5 -12 2 9 2 23 0 30 -3 6 -5 -1 -5 -18z"/>
<path d="M2362 2660 c0 -14 2 -19 5 -12 2 6 2 18 0 25 -3 6 -5 1 -5 -13z"/>
<path d="M5103 2635 c0 -22 2 -30 4 -17 2 12 2 30 0 40 -3 9 -5 -1 -4 -23z"/>
<path d="M2354 2500 c0 -58 1 -81 3 -52 2 28 2 76 0 105 -2 28 -3 5 -3 -53z"/>
<path d="M5113 2520 c0 -41 2 -58 4 -37 2 20 2 54 0 75 -2 20 -4 3 -4 -38z"/>
<path d="M2473 2515 c0 -38 2 -53 4 -32 2 20 2 52 0 70 -2 17 -4 1 -4 -38z"/>
<path d="M2463 2370 c0 -36 2 -50 4 -32 2 17 2 47 0 65 -2 17 -4 3 -4 -33z"/>
<path d="M6458 2321 c-24 -22 -75 -57 -113 -79 -104 -59 -197 -182 -137 -182
10 0 22 4 28 9 14 13 114 44 121 37 3 -3 1 -171 -6 -373 -6 -202 -11 -476 -11
-608 l0 -241 -55 -27 c-30 -15 -55 -23 -55 -17 0 5 5 12 10 15 6 3 10 11 10
17 0 6 -29 -20 -65 -58 -35 -38 -60 -70 -55 -72 5 -2 6 -19 3 -39 -5 -29 -3
-35 8 -30 86 36 137 51 273 78 l159 33 59 60 c103 104 100 115 -27 90 -47 -9
-89 -14 -93 -10 -13 13 -14 471 -3 846 12 398 11 390 71 390 20 0 44 18 93 69
37 38 67 74 67 80 0 21 -30 23 -110 7 -102 -20 -98 -21 -102 11 -5 40 -22 39
-70 -6z"/>
<path d="M7525 2298 c-34 -34 -40 -44 -20 -30 36 25 92 82 79 82 -5 -1 -31
-24 -59 -52z"/>
<path d="M7655 2340 c-35 -14 -117 -106 -124 -139 -3 -17 -1 -195 6 -394 13
-440 17 -676 11 -683 -8 -8 -184 258 -255 386 -134 239 -236 484 -339 818 -7
23 -35 12 -85 -35 -66 -62 -73 -77 -70 -147 3 -74 -27 -137 -105 -221 -88 -95
-134 -155 -134 -176 0 -19 6 -21 84 -37 83 -16 86 -29 136 -617 13 -144 39
-363 46 -387 3 -10 13 -18 23 -18 22 0 129 106 137 134 3 12 -2 69 -10 126 -9
58 -20 157 -25 220 -47 534 -56 612 -81 659 -17 34 -28 43 -65 53 -25 7 -45
15 -45 18 1 15 78 92 88 86 6 -3 14 -20 17 -38 25 -110 218 -527 321 -689 13
-21 24 -41 24 -44 0 -2 34 -55 75 -116 46 -68 74 -118 70 -127 -3 -9 -2 -18 3
-21 4 -3 18 -21 31 -39 13 -19 29 -31 37 -28 8 3 11 0 8 -8 -3 -8 15 -35 40
-62 25 -27 46 -52 46 -56 0 -4 14 -15 31 -24 33 -17 39 -14 104 51 74 76 75
78 75 198 l0 112 41 -48 c23 -27 72 -71 108 -98 l66 -50 5 -91 c3 -60 9 -93
17 -95 7 -3 37 18 66 46 30 28 60 51 68 51 8 0 28 -8 44 -17 47 -25 231 -31
276 -8 48 25 176 151 207 205 24 40 27 55 27 140 0 78 -6 109 -28 175 -56 159
-56 159 -405 675 -83 123 -162 269 -162 300 0 20 -57 42 -79 30 -9 -4 -38 -31
-66 -60 -46 -46 -50 -55 -50 -98 0 -26 10 -92 22 -147 12 -55 29 -161 38 -235
19 -164 32 -570 19 -570 -5 0 -22 19 -38 43 -23 35 -27 50 -23 87 3 25 8 53
12 63 5 13 2 17 -12 17 -20 0 -135 -111 -145 -140 -16 -46 -21 39 -22 392 -1
249 -5 396 -11 400 -6 4 -11 67 -13 140 -2 73 -7 136 -10 139 -4 4 -16 3 -27
-1z m522 -692 c217 -301 310 -489 316 -640 l2 -63 -80 0 c-85 0 -128 16 -252
89 l-53 31 0 332 c0 183 2 333 4 333 2 0 30 -37 63 -82z m-764 -738 c-5 -6
-42 41 -43 55 0 6 11 -3 24 -20 13 -16 22 -32 19 -35z"/>
<path d="M8155 1069 c10 -26 150 -97 164 -84 2 3 -5 8 -15 11 -55 20 -112 49
-132 67 -16 15 -21 17 -17 6z"/>
<path d="M8238 1058 c6 -6 18 -8 28 -6 14 3 12 5 -9 10 -19 3 -25 2 -19 -4z"/>
<path d="M8325 1029 c22 -4 51 -8 65 -7 16 0 11 3 -15 9 -22 4 -51 8 -65 7
-16 0 -11 -3 15 -9z"/>
<path d="M8343 973 c9 -2 23 -2 30 0 6 3 -1 5 -18 5 -16 0 -22 -2 -12 -5z"/>
<path d="M1703 2253 c-48 -49 -115 -111 -148 -139 -88 -75 -93 -87 -72 -187
10 -46 17 -127 17 -184 l0 -102 -50 -52 c-80 -83 -82 -132 -5 -128 24 2 47 0
50 -3 4 -3 1 -61 -4 -129 -6 -68 -18 -216 -26 -329 -8 -113 -17 -228 -20 -257
-3 -33 -1 -54 6 -59 7 -4 39 21 79 62 l67 69 11 85 c6 47 19 197 29 334 16
231 19 249 38 257 19 8 75 17 344 55 57 8 106 13 109 10 3 -3 -11 -41 -31 -83
-103 -221 -122 -459 -48 -618 77 -166 177 -194 346 -98 63 36 115 81 248 212
92 91 167 171 167 177 0 13 -117 126 -148 143 -19 10 -27 9 -51 -8 -23 -17
-30 -30 -34 -73 -21 -185 -52 -243 -162 -294 -76 -36 -101 -32 -156 25 -37 38
-52 65 -74 131 -25 75 -27 92 -21 169 7 96 31 200 72 311 23 64 26 83 20 132
-5 37 -11 55 -19 53 -7 -3 -61 -11 -122 -20 -60 -8 -153 -22 -205 -30 -148
-24 -200 -29 -200 -19 1 5 31 32 67 59 76 57 134 107 247 215 48 46 80 70 83
62 12 -33 71 -108 95 -122 27 -15 29 -14 68 25 29 29 44 55 54 95 14 52 13 55
-10 85 -13 18 -36 64 -51 104 -20 54 -30 71 -45 71 -29 0 -120 -97 -157 -167
-47 -88 -146 -182 -323 -307 l-68 -47 0 68 c0 37 -5 119 -11 181 l-10 113 62
67 c66 72 119 144 119 161 0 30 -47 2 -127 -76z"/>
<path d="M7425 2330 c-3 -6 1 -7 9 -4 18 7 21 14 7 14 -6 0 -13 -4 -16 -10z"/>
<path d="M5990 2310 c-34 -7 -34 -7 -5 -8 17 0 41 4 55 8 33 11 0 11 -50 0z"/>
<path d="M5260 2302 c0 -8 109 -7 117 2 4 3 -21 6 -55 6 -34 0 -62 -3 -62 -8z"/>
<path d="M5450 2265 c-42 -42 -47 -45 -98 -45 -67 0 -106 -22 -162 -92 -43
-55 -45 -65 -29 -154 15 -85 30 -124 49 -124 9 0 47 32 84 70 50 52 67 76 63
90 -3 11 -1 20 4 20 14 0 18 -35 24 -263 l6 -217 -27 -23 c-51 -40 -123 -118
-130 -139 -11 -35 10 -42 58 -20 24 11 54 22 68 24 l25 3 7 -130 c4 -71 9
-224 11 -340 4 -200 5 -210 23 -207 24 5 56 34 107 97 l39 50 -7 286 -7 286
98 16 c157 26 169 32 240 103 63 62 86 112 47 100 -34 -10 -345 -66 -368 -66
l-23 0 -4 203 c-2 111 0 206 3 210 4 5 69 13 145 18 148 10 218 20 326 45 63
15 72 21 134 86 41 44 62 74 56 80 -6 6 -62 1 -153 -13 -110 -18 -188 -23
-329 -23 l-185 -1 -3 58 c-3 52 -5 57 -25 57 -14 0 -41 -18 -67 -45z"/>
<path d="M2473 2235 c0 -33 2 -45 4 -27 2 18 2 45 0 60 -2 15 -4 0 -4 -33z"/>
<path d="M5888 2283 c12 -2 30 -2 40 0 9 3 -1 5 -23 4 -22 0 -30 -2 -17 -4z"/>
<path d="M5783 2273 c15 -2 39 -2 55 0 15 2 2 4 -28 4 -30 0 -43 -2 -27 -4z"/>
<path d="M1174 2206 c-36 -38 -71 -66 -83 -66 -31 0 -102 34 -154 74 -69 53
-74 52 -198 -55 -37 -31 -88 -64 -115 -74 -141 -51 -212 -103 -249 -181 -15
-32 -15 -37 1 -70 28 -58 115 -117 334 -225 333 -164 459 -260 532 -408 43
-85 50 -173 18 -213 -26 -33 -88 -52 -142 -43 -23 4 -59 2 -84 -5 -34 -10 -58
-10 -107 -1 -189 36 -307 122 -406 296 -60 104 -74 148 -66 208 l7 49 -28 -15
c-37 -20 -107 -93 -128 -134 -29 -57 -21 -132 22 -216 42 -80 110 -173 164
-223 113 -106 314 -166 479 -144 150 21 209 52 330 177 94 95 120 138 139 223
25 111 -34 245 -159 362 -76 72 -216 163 -331 216 -205 93 -355 175 -365 199
-2 7 4 17 15 23 10 5 47 34 81 64 l63 53 45 -35 c63 -48 116 -69 209 -82 57
-9 85 -9 100 -1 24 13 30 7 65 -71 14 -32 31 -58 37 -58 18 0 100 71 125 108
26 37 24 49 -15 137 -13 28 -26 81 -29 120 -8 96 -24 97 -107 11z"/>
<path d="M5988 2253 c12 -2 32 -2 45 0 12 2 2 4 -23 4 -25 0 -35 -2 -22 -4z"/>
<path d="M5187 2232 c-26 -28 -20 -38 7 -13 20 19 33 22 90 20 36 -1 69 1 73
4 3 4 -30 7 -74 7 -65 0 -83 -3 -96 -18z"/>
<path d="M5893 2243 c15 -2 37 -2 50 0 12 2 0 4 -28 4 -27 0 -38 -2 -22 -4z"/>
<path d="M5673 2223 c31 -2 83 -2 115 0 31 2 5 3 -58 3 -63 0 -89 -1 -57 -3z"/>
<path d="M7061 2145 c-1 -11 6 -33 14 -49 8 -15 15 -33 15 -38 0 -5 13 -38 29
-71 15 -34 32 -73 36 -87 4 -14 15 -36 25 -50 10 -14 20 -34 24 -45 3 -11 21
-44 38 -72 18 -29 47 -75 63 -102 17 -28 33 -51 38 -51 4 0 -22 47 -57 104
-56 90 -156 284 -156 302 0 3 -6 20 -14 37 -16 38 -43 106 -50 127 -3 10 -5 9
-5 -5z"/>
<path d="M8201 2105 c2 -6 43 -68 90 -140 47 -71 121 -192 164 -267 44 -75 83
-137 87 -138 4 0 -13 34 -37 76 -25 42 -45 77 -45 79 0 2 -13 24 -30 48 -16
25 -30 48 -30 53 0 4 -11 22 -25 40 -14 18 -25 35 -25 38 0 8 -122 189 -138
206 -8 8 -13 10 -11 5z"/>
<path d="M1926 2049 c-20 -22 -53 -66 -73 -97 -19 -31 -56 -78 -81 -104 -26
-27 -41 -48 -35 -48 14 0 82 80 145 170 25 36 58 77 73 93 15 15 23 27 18 27
-6 0 -27 -18 -47 -41z"/>
<path d="M740 2025 c0 -13 64 -75 101 -98 15 -9 51 -18 80 -21 l54 -5 -55 11
c-60 11 -98 34 -147 88 -18 19 -33 30 -33 25z"/>
<path d="M1816 1967 c-24 -34 -26 -38 -7 -22 23 20 45 54 39 60 -2 2 -16 -15
-32 -38z"/>
<path d="M8340 2000 c0 -5 5 -10 11 -10 5 0 7 5 4 10 -3 6 -8 10 -11 10 -2 0
-4 -4 -4 -10z"/>
<path d="M5561 1954 c0 -16 4 -38 9 -49 6 -13 7 -5 3 25 -7 53 -13 66 -12 24z"/>
<path d="M7210 1967 c0 -7 4 -17 9 -22 5 -6 35 -62 68 -125 71 -137 112 -204
120 -196 4 3 -1 14 -9 23 -9 10 -24 34 -33 53 -10 19 -21 37 -24 40 -3 3 -33
58 -65 123 -33 64 -61 117 -63 117 -2 0 -3 -6 -3 -13z"/>
<path d="M7750 1895 c0 -50 4 -85 10 -85 6 0 10 35 10 85 0 50 -4 85 -10 85
-6 0 -10 -35 -10 -85z"/>
<path d="M8385 1940 c14 -25 31 -55 37 -67 6 -13 15 -23 20 -23 4 0 8 -5 8
-10 0 -6 22 -45 50 -88 27 -42 50 -72 50 -67 0 6 -19 39 -43 75 -23 36 -51 82
-62 103 -11 20 -23 37 -27 37 -5 0 -8 6 -8 13 -1 6 -12 26 -26 42 l-26 30 27
-45z"/>
<path d="M795 1911 c8 -14 94 -45 102 -37 3 3 0 6 -8 6 -8 0 -31 9 -52 20 -41
22 -51 25 -42 11z"/>
<path d="M1287 1863 c-26 -20 -46 -38 -43 -40 3 -3 24 10 48 28 24 19 45 35
47 36 2 2 2 5 0 7 -2 3 -26 -12 -52 -31z"/>
<path d="M6302 1753 c2 -149 5 -131 10 50 2 53 0 97 -4 97 -5 0 -7 -66 -6
-147z"/>
<path d="M1332 1847 c-17 -12 -32 -26 -32 -30 0 -4 15 3 33 15 17 13 34 24 36
25 2 2 2 5 0 8 -3 2 -19 -6 -37 -18z"/>
<path d="M5584 1775 c0 -55 1 -76 3 -47 2 29 2 74 0 100 -2 26 -3 2 -3 -53z"/>
<path d="M928 1853 c12 -2 30 -2 40 0 9 3 -1 5 -23 4 -22 0 -30 -2 -17 -4z"/>
<path d="M990 1846 c0 -2 11 -6 25 -8 14 -3 25 -1 25 3 0 5 -11 9 -25 9 -14 0
-25 -2 -25 -4z"/>
<path d="M2105 1810 c-11 -4 -47 -16 -80 -25 -72 -22 -96 -38 -34 -23 24 6 48
15 54 19 5 5 20 9 35 10 32 1 66 14 54 21 -5 3 -18 2 -29 -2z"/>
<path d="M6242 1730 c0 -19 2 -27 5 -17 2 9 2 25 0 35 -3 9 -5 1 -5 -18z"/>
<path d="M7723 1680 c0 -47 2 -66 4 -42 2 23 2 61 0 85 -2 23 -4 4 -4 -43z"/>
<path d="M2075 1740 l-40 -7 35 0 c19 -1 49 3 65 7 27 7 27 8 5 7 -14 0 -43
-3 -65 -7z"/>
<path d="M1928 1713 c17 -2 47 -2 65 0 17 2 3 4 -33 4 -36 0 -50 -2 -32 -4z"/>
<path d="M6258 1655 c2 -14 6 -25 8 -25 2 0 4 11 4 25 0 14 -4 25 -9 25 -4 0
-6 -11 -3 -25z"/>
<path d="M6273 1570 c0 -30 2 -43 4 -27 2 15 2 39 0 55 -2 15 -4 2 -4 -28z"/>
<path d="M5929 1568 c-12 -18 -40 -50 -62 -70 -39 -38 -40 -53 -1 -20 33 27
107 122 96 122 -6 0 -21 -15 -33 -32z"/>
<path d="M6318 1445 c3 -88 6 -162 8 -164 7 -8 2 224 -5 274 -5 28 -6 -20 -3
-110z"/>
<path d="M5919 1498 l-22 -33 31 29 c34 32 37 36 23 36 -5 0 -20 -15 -32 -32z"/>
<path d="M269 1493 c-42 -35 -76 -113 -49 -113 6 0 10 12 10 28 1 31 11 45 58
85 19 15 29 27 24 27 -6 0 -25 -12 -43 -27z"/>
<path d="M2045 1484 c-26 -28 -65 -98 -65 -116 0 -6 12 11 26 38 14 27 37 61
52 77 14 15 22 27 18 27 -4 0 -18 -12 -31 -26z"/>
<path d="M347 1469 c-15 -12 -32 -31 -38 -42 -8 -14 4 -8 32 18 24 22 46 41
48 43 2 1 0 2 -5 2 -5 0 -21 -10 -37 -21z"/>
<path d="M1951 1426 c-13 -16 -42 -108 -36 -114 3 -3 7 4 10 14 4 10 14 40 25
67 19 50 20 56 1 33z"/>
<path d="M4763 1428 c-5 -7 -22 -35 -37 -61 -29 -51 -153 -183 -198 -212 -16
-10 -28 -22 -28 -27 0 -28 190 158 230 225 13 23 27 44 30 47 8 6 21 40 16 40
-2 0 -8 -6 -13 -12z"/>
<path d="M283 1383 c-3 -10 -8 -22 -11 -27 -3 -5 0 -6 5 -3 11 7 25 47 17 47
-3 0 -7 -8 -11 -17z"/>
<path d="M2681 1352 c-8 -16 2 -31 59 -90 39 -39 70 -75 70 -81 0 -32 69 13
70 45 0 12 -64 74 -121 117 -42 32 -64 34 -78 9z"/>
<path d="M1947 1257 c-28 -133 -21 -377 11 -409 6 -6 6 7 -1 33 -16 58 -14
296 2 382 7 38 11 70 9 72 -2 3 -12 -33 -21 -78z"/>
<path d="M1896 1268 c-17 -92 -17 -93 -8 -78 11 16 27 110 19 110 -2 0 -7 -15
-11 -32z"/>
<path d="M5310 1174 c0 -43 -2 -97 -5 -119 l-5 -40 9 35 c12 44 18 187 8 196
-4 4 -7 -28 -7 -72z"/>
<path d="M7146 1230 c9 -13 70 -90 118 -150 6 -9 27 -37 45 -63 18 -27 35 -46
38 -43 7 6 -157 225 -188 251 -13 11 -19 13 -13 5z"/>
<path d="M1185 1145 c0 -18 3 -31 8 -28 4 2 7 15 7 28 0 13 -3 26 -7 28 -5 3
-8 -10 -8 -28z"/>
<path d="M1873 1075 c0 -44 2 -61 4 -37 2 23 2 59 0 80 -2 20 -4 1 -4 -43z"/>
<path d="M1135 1075 c-24 -20 -26 -23 -8 -19 22 6 64 44 47 44 -5 -1 -22 -12
-39 -25z"/>
<path d="M1220 1058 c-1 -39 -22 -67 -70 -90 -28 -13 -31 -17 -13 -17 12 -1
38 14 57 33 28 26 36 41 36 70 0 20 -2 36 -5 36 -3 0 -5 -15 -5 -32z"/>
<path d="M290 1073 c0 -5 18 -46 40 -91 22 -44 40 -84 40 -87 0 -4 15 -21 33
-40 33 -34 68 -58 147 -97 25 -13 47 -26 48 -30 2 -5 9 -8 15 -8 7 0 33 -11
60 -24 26 -13 47 -21 47 -18 0 4 -33 22 -73 41 -72 34 -139 72 -209 119 -28
18 -48 46 -83 117 -25 51 -45 97 -45 103 0 6 -4 14 -10 17 -5 3 -10 2 -10 -2z"/>
<path d="M6607 1053 c-20 -14 -36 -28 -33 -30 6 -6 76 38 76 48 0 12 1 12 -43
-18z"/>
<path d="M7165 1060 c3 -5 11 -10 16 -10 6 0 7 5 4 10 -3 6 -11 10 -16 10 -6
0 -7 -4 -4 -10z"/>
<path d="M5242 1035 c0 -16 2 -22 5 -12 2 9 2 23 0 30 -3 6 -5 -1 -5 -18z"/>
<path d="M7248 978 c33 -35 76 -81 96 -103 20 -22 36 -36 36 -32 0 5 -6 14
-12 21 -7 7 -46 50 -86 95 -41 44 -79 81 -84 81 -6 0 16 -28 50 -62z"/>
<path d="M399 953 c73 -104 126 -147 224 -183 50 -18 28 -1 -39 30 -70 32
-134 91 -181 166 -15 24 -32 44 -36 44 -5 0 10 -26 32 -57z"/>
<path d="M6603 992 c-23 -9 -44 -21 -47 -28 -2 -6 14 -3 37 9 23 11 53 23 67
28 20 6 21 7 5 7 -11 0 -39 -7 -62 -16z"/>
<path d="M2695 962 c-12 -9 -37 -37 -57 -62 -20 -25 -57 -67 -82 -95 -24 -27
-42 -52 -40 -54 5 -5 63 59 136 149 24 30 55 61 69 67 13 7 17 13 9 13 -8 0
-24 -8 -35 -18z"/>
<path d="M8586 876 c-50 -78 -124 -126 -193 -126 -29 0 -53 -4 -53 -8 0 -13
113 3 147 21 46 24 99 80 122 127 27 55 18 50 -23 -14z"/>
<path d="M2682 830 c-18 -17 -27 -30 -20 -29 7 0 23 13 36 30 29 37 26 36 -16
-1z"/>
<path d="M6121 819 c-13 -11 -22 -21 -20 -23 2 -3 17 7 32 20 15 13 24 24 20
24 -4 -1 -19 -10 -32 -21z"/>
<path d="M5510 739 c-25 -22 -36 -36 -25 -30 28 14 92 70 80 70 -5 0 -30 -18
-55 -40z"/>
<path d="M8600 763 c-14 -9 -27 -20 -30 -23 -3 -3 -27 -14 -55 -24 -59 -22
-84 -41 -40 -30 17 4 32 11 35 15 3 4 16 10 30 14 14 3 41 19 60 35 39 32 38
40 0 13z"/>
<path d="M6967 733 c-11 -13 -17 -26 -14 -29 2 -3 12 7 21 22 23 33 17 39 -7
7z"/>
<path d="M6618 723 c6 -2 18 -2 25 0 6 3 1 5 -13 5 -14 0 -19 -2 -12 -5z"/>
<path d="M5585 706 c-23 -25 -26 -40 -4 -19 12 12 21 24 18 27 -2 2 -9 -1 -14
-8z"/>
<path d="M6548 713 c12 -2 30 -2 40 0 9 3 -1 5 -23 4 -22 0 -30 -2 -17 -4z"/>
<path d="M6463 693 c9 -2 23 -2 30 0 6 3 -1 5 -18 5 -16 0 -22 -2 -12 -5z"/>
<path d="M6915 680 c-10 -11 -13 -20 -8 -20 13 0 38 29 31 35 -3 3 -13 -4 -23
-15z"/>
<path d="M6408 683 c6 -2 18 -2 25 0 6 3 1 5 -13 5 -14 0 -19 -2 -12 -5z"/>
<path d="M6338 663 c-10 -2 -18 -9 -18 -14 0 -12 13 -12 26 0 5 5 18 11 29 14
l20 5 -20 0 c-11 0 -28 -2 -37 -5z"/>
<path d="M6990 629 c-24 -21 -42 -40 -40 -43 3 -2 25 14 48 36 56 52 50 57 -8
7z"/>
</g>
</svg>
