<?xml version="1.0" standalone="no"?>
<!DOCTYPE svg PUBLIC "-//W3C//DTD SVG 20010904//EN"
 "http://www.w3.org/TR/2001/REC-SVG-20010904/DTD/svg10.dtd">
<svg version="1.0" xmlns="http://www.w3.org/2000/svg"
 width="367.000000pt" height="131.000000pt" viewBox="0 0 367.000000 131.000000"
 preserveAspectRatio="xMidYMid meet">

<g transform="translate(0.000000,131.000000) scale(0.100000,-0.100000)"
fill="#000000" stroke="none">
<path d="M1337 1220 c-204 -35 -366 -232 -367 -446 0 -132 83 -293 188 -362
18 -12 22 -23 22 -68 0 -46 3 -56 20 -62 11 -4 28 -23 38 -42 25 -50 70 -63
201 -57 112 5 150 21 161 66 3 12 16 27 30 34 21 11 25 20 25 58 0 42 4 49 62
102 129 121 178 275 139 442 -19 80 -58 146 -123 211 -63 64 -131 100 -222
120 -72 15 -102 16 -174 4z m223 -142 c66 -30 127 -88 160 -154 19 -37 26 -69
28 -129 5 -99 -19 -171 -80 -239 l-41 -47 -23 22 c-13 12 -24 26 -24 30 0 5
14 28 31 52 106 150 9 355 -176 374 -140 15 -256 -92 -256 -236 -1 -64 15
-111 53 -156 25 -30 25 -31 8 -53 -10 -12 -23 -22 -28 -22 -19 0 -80 84 -102
140 -30 76 -25 193 12 265 36 69 103 131 174 161 78 33 183 30 264 -8z m-230
-321 c42 -15 79 -21 152 -21 l97 0 17 -32 c17 -30 16 -33 -2 -65 -69 -117
-249 -132 -338 -28 -47 56 -59 108 -34 149 14 23 23 30 36 25 9 -4 42 -17 72
-28z m-5 -247 c17 -33 49 -50 96 -50 41 0 66 15 84 50 18 35 44 38 71 9 18
-20 18 -21 -1 -35 -56 -42 -201 -50 -278 -16 -47 21 -57 38 -35 60 21 21 47
13 63 -18z m140 -9 c-7 -13 -65 -15 -92 -3 -12 5 -1 9 37 12 62 6 65 5 55 -9z
m-225 -167 c0 -36 -1 -37 -22 -29 -9 4 -13 17 -10 40 5 45 32 36 32 -11z m390
7 c0 -40 -27 -49 -32 -10 -5 32 -2 39 19 39 8 0 13 -11 13 -29z m-210 -6 c47
0 102 4 123 9 l37 8 0 -42 c0 -56 -13 -77 -58 -90 -41 -11 -162 -13 -212 -4
-36 8 -60 49 -60 105 l0 32 43 -9 c23 -5 80 -9 127 -9z"/>
<path d="M1352 708 c-14 -14 -15 -37 -3 -57 8 -12 12 -12 25 -2 19 16 20 31 3
54 -10 14 -15 15 -25 5z"/>
<path d="M1462 711 c-18 -11 -12 -66 7 -66 7 0 17 10 22 22 10 26 -10 56 -29
44z"/>
<path d="M1490 603 c-37 -19 -53 -23 -90 -18 -25 4 -58 14 -73 22 -16 8 -31
12 -34 9 -12 -11 79 -46 123 -46 47 0 104 21 125 46 16 19 2 16 -51 -13z"/>
<path d="M440 899 c0 -4 9 -18 20 -32 17 -21 20 -40 20 -118 0 -72 -4 -96 -17
-111 -15 -17 -15 -19 0 -36 13 -14 17 -45 19 -145 l3 -127 47 33 47 32 1 70 1
70 40 28 c47 32 52 33 95 6 29 -17 34 -26 34 -58 0 -30 -6 -42 -30 -59 -26
-20 -30 -29 -30 -73 0 -28 4 -49 8 -47 5 2 36 21 70 43 l62 40 0 87 0 88 -40
26 c-38 25 -51 44 -31 44 5 0 17 7 25 16 12 12 16 37 16 110 0 59 -4 94 -11
94 -5 0 -28 -14 -50 -32 -35 -28 -39 -36 -39 -77 0 -44 -2 -47 -54 -83 -30
-21 -57 -38 -60 -38 -3 0 -6 47 -6 105 0 128 -8 141 -88 146 -28 2 -52 1 -52
-2z"/>
<path d="M2710 900 c0 -4 11 -17 25 -30 23 -22 25 -30 25 -115 0 -79 -3 -94
-20 -110 l-20 -18 20 -22 c17 -18 20 -35 20 -101 l0 -80 43 -42 c23 -23 46
-42 50 -42 4 0 7 83 7 185 l0 185 38 35 c20 19 40 35 45 35 4 0 7 -80 7 -177
l1 -178 32 -35 c61 -65 62 -65 102 -33 33 26 35 31 35 87 l0 60 -28 -27 c-15
-15 -32 -27 -38 -27 -15 0 -4 143 12 161 13 14 13 18 -1 29 -12 10 -15 37 -15
136 l0 124 -53 0 c-47 0 -59 -4 -95 -36 -26 -22 -42 -30 -42 -22 0 30 -44 57
-97 60 -29 2 -53 1 -53 -2z"/>
<path d="M168 842 l-78 -56 0 -56 c0 -64 -10 -53 148 -160 51 -34 92 -65 92
-70 0 -15 -70 -61 -83 -54 -6 4 -42 29 -79 56 -37 26 -70 48 -73 48 -3 0 -5
-24 -5 -53 l0 -53 79 -57 c44 -31 84 -57 89 -57 5 0 40 22 78 50 38 28 72 50
76 50 5 0 8 29 8 64 l0 65 -120 82 c-66 46 -120 86 -120 89 0 4 18 20 41 34
41 27 41 27 63 9 26 -24 124 -93 131 -93 3 0 5 24 5 53 l0 53 -79 57 c-44 31
-83 57 -88 56 -4 0 -43 -26 -85 -57z"/>
<path d="M2232 876 c-29 -21 -41 -23 -102 -18 -39 2 -70 2 -70 -2 0 -4 11 -22
25 -40 33 -44 36 -138 5 -171 -20 -21 -20 -21 0 -43 18 -19 20 -35 20 -147 l0
-126 28 19 c69 51 72 56 72 147 l0 85 51 0 50 0 -25 43 c-18 29 -33 43 -51 45
-22 3 -25 8 -25 42 0 30 6 43 26 59 35 27 42 27 91 -9 36 -27 44 -29 67 -19
23 11 26 18 26 67 l0 54 -24 -15 c-22 -15 -26 -14 -71 19 -27 19 -51 34 -54
34 -3 -1 -21 -11 -39 -24z"/>
<path d="M2520 779 c0 -100 -3 -126 -17 -141 -15 -17 -15 -19 0 -36 12 -13 17
-42 19 -111 l3 -93 48 -35 47 -35 0 128 c0 100 3 131 15 144 15 17 11 50 -6
50 -5 0 -9 40 -9 88 0 88 0 88 -32 113 -75 56 -68 64 -68 -72z"/>
<path d="M3357 873 c-32 -23 -46 -26 -103 -24 -65 2 -65 2 -52 -20 7 -12 19
-31 25 -43 21 -35 16 -116 -8 -142 l-21 -22 21 -21 c18 -18 21 -33 21 -96 0
-41 3 -75 8 -75 4 0 32 -19 62 -41 91 -68 87 -68 171 -8 41 29 77 58 81 64 4
5 8 83 8 173 l0 162 -82 60 c-45 33 -84 60 -87 60 -4 0 -23 -12 -44 -27z m84
-110 l29 -17 0 -126 c0 -119 -1 -128 -22 -147 -40 -35 -47 -36 -83 -8 l-35 26
0 124 c0 122 0 124 26 144 32 25 47 26 85 4z"/>
<path d="M918 371 c-49 -49 -88 -93 -88 -98 0 -12 73 -83 86 -83 13 0 184 173
184 186 0 13 -73 84 -85 84 -6 0 -49 -40 -97 -89z"/>
</g>
</svg>
