<?xml version="1.0" standalone="no"?>
<!DOCTYPE svg PUBLIC "-//W3C//DTD SVG 20010904//EN"
 "http://www.w3.org/TR/2001/REC-SVG-20010904/DTD/svg10.dtd">
<svg version="1.0" xmlns="http://www.w3.org/2000/svg"
 width="519.000000pt" height="208.000000pt" viewBox="0 0 519.000000 208.000000"
 preserveAspectRatio="xMidYMid meet">

<g transform="translate(0.000000,208.000000) scale(0.100000,-0.100000)"
fill="#000000" stroke="none">
<path d="M1614 1906 c-33 -8 -92 -30 -130 -49 -292 -147 -407 -494 -260 -785
37 -73 127 -180 177 -209 28 -17 29 -21 29 -89 0 -69 1 -72 28 -83 15 -7 34
-28 44 -49 10 -20 27 -43 38 -50 32 -19 163 -33 259 -26 99 8 153 31 172 76 7
16 24 37 38 46 37 24 41 31 41 89 0 51 0 52 88 140 129 131 183 249 182 403 0
101 -11 166 -40 239 -57 146 -211 286 -363 332 -89 26 -223 33 -303 15z m217
-150 c87 -19 141 -47 206 -108 100 -95 137 -192 131 -336 -4 -84 -8 -105 -35
-157 -33 -65 -107 -155 -127 -155 -12 0 -56 44 -56 56 0 3 18 35 40 71 55 92
68 154 47 238 -45 182 -217 283 -394 230 -210 -62 -284 -321 -142 -498 30 -37
30 -39 14 -63 -28 -43 -45 -42 -90 9 -153 168 -149 446 9 595 67 64 92 79 173
108 78 27 131 29 224 10z m-211 -441 c62 -23 97 -29 200 -33 l126 -5 22 -33
c12 -19 22 -39 22 -45 0 -7 -17 -34 -37 -61 -93 -121 -269 -145 -390 -52 -47
36 -93 119 -93 170 0 48 33 99 59 91 9 -3 50 -17 91 -32z m-24 -304 c51 -59
65 -71 103 -81 65 -17 115 1 154 56 17 24 39 44 48 44 21 0 60 -46 53 -64 -3
-7 -34 -23 -70 -35 -88 -32 -244 -27 -316 9 -27 13 -48 28 -48 34 0 12 40 56
52 56 4 0 15 -8 24 -19z m204 -30 c0 -13 -53 -21 -94 -14 -58 9 -41 23 29 23
36 0 65 -4 65 -9z m-292 -204 c4 -30 -14 -61 -29 -51 -5 3 -9 23 -9 45 0 33 3
40 18 37 10 -2 18 -14 20 -31z m502 -13 c0 -28 -3 -35 -17 -32 -12 2 -19 14
-21 36 -3 27 0 32 17 32 17 0 21 -6 21 -36z m-265 1 c66 0 140 4 164 9 l44 9
-5 -63 c-7 -92 -25 -105 -159 -113 -118 -8 -213 3 -235 25 -17 17 -33 77 -34
122 l0 29 53 -9 c28 -5 106 -9 172 -9z"/>
<path d="M1652 1248 c-22 -22 -12 -88 14 -88 18 0 36 37 29 59 -9 30 -29 43
-43 29z"/>
<path d="M1787 1243 c-20 -19 0 -83 25 -83 13 0 27 46 21 69 -5 20 -32 28 -46
14z"/>
<path d="M1840 1114 c-67 -36 -140 -32 -244 11 -43 18 -2 -18 43 -38 68 -30
144 -27 209 8 29 15 52 32 52 37 0 11 -9 9 -60 -18z"/>
<path d="M470 1491 c0 -5 11 -23 25 -39 24 -28 25 -36 25 -153 0 -111 -2 -125
-21 -145 l-21 -23 21 -22 c20 -21 21 -34 21 -186 0 -98 4 -163 10 -163 5 0 33
19 62 43 l53 43 3 87 3 87 52 35 c28 19 58 35 66 35 8 0 34 -11 58 -25 41 -25
43 -28 43 -74 0 -44 -3 -51 -35 -75 -34 -26 -35 -29 -35 -93 0 -54 3 -64 15
-59 25 9 139 87 153 104 8 10 12 50 12 113 l0 97 -52 46 -53 46 28 23 c27 23
27 23 27 150 0 70 -4 127 -9 127 -5 0 -32 -18 -60 -40 -46 -37 -51 -44 -52
-83 -2 -70 -11 -86 -78 -132 -36 -25 -68 -45 -73 -45 -4 0 -8 62 -8 137 0 135
0 137 -27 165 -24 25 -34 28 -90 28 -35 0 -63 -4 -63 -9z"/>
<path d="M3429 1482 c5 -9 19 -26 30 -36 19 -17 21 -30 21 -133 0 -106 -2
-117 -25 -147 l-25 -33 25 -23 c24 -22 25 -29 25 -130 l0 -106 59 -58 59 -58
7 206 c4 114 5 222 2 241 -5 30 -1 38 43 79 27 25 53 46 58 46 11 0 22 -156
22 -327 l0 -131 56 -56 c31 -31 63 -56 70 -56 8 0 32 16 54 36 39 35 40 38 40
100 0 72 -7 77 -52 39 -16 -14 -34 -25 -39 -25 -5 0 -9 40 -9 88 0 76 3 91 20
107 25 22 25 38 3 61 -15 15 -19 43 -23 173 l-5 156 -56 3 c-53 3 -59 0 -115
-42 -58 -44 -59 -44 -69 -23 -22 48 -56 66 -123 67 -57 0 -62 -2 -53 -18z"/>
<path d="M189 1472 c-60 -40 -165 -117 -171 -126 -4 -6 -8 -37 -8 -69 0 -54 3
-62 33 -90 18 -18 69 -56 113 -86 43 -30 101 -71 128 -90 l49 -35 -34 -28
c-59 -50 -70 -48 -177 26 -108 74 -110 74 -111 -19 l-1 -50 93 -66 c138 -99
120 -97 218 -27 46 33 92 66 101 73 13 9 20 32 24 86 l6 74 -156 108 c-86 60
-156 114 -156 122 0 8 20 28 45 45 l44 30 102 -70 c56 -38 105 -68 109 -65 4
2 8 31 9 64 l2 59 -58 44 c-90 69 -150 108 -165 107 -7 0 -25 -8 -39 -17z"/>
<path d="M2791 1462 c-32 -25 -39 -27 -128 -24 l-94 4 31 -48 c27 -44 30 -55
30 -133 0 -72 -3 -88 -21 -107 l-21 -23 21 -22 c20 -21 21 -34 21 -180 0 -87
4 -160 9 -163 5 -3 33 13 64 37 l55 42 7 118 7 117 54 0 c29 0 56 4 59 10 3 5
-8 30 -25 55 -30 44 -55 65 -75 62 -5 -1 -14 15 -19 36 -9 34 -7 40 19 67 44
46 66 47 128 6 64 -42 76 -44 110 -12 23 21 25 29 20 77 -3 30 -6 55 -8 57 -2
2 -15 -4 -30 -14 -26 -17 -27 -17 -85 24 -33 23 -67 42 -77 42 -10 -1 -33 -13
-52 -28z"/>
<path d="M3176 1468 c-3 -13 -6 -81 -6 -151 0 -114 -2 -132 -21 -158 l-20 -29
20 -22 c19 -19 21 -35 21 -142 l1 -121 56 -42 c31 -23 60 -40 64 -37 5 3 9 75
9 160 0 124 3 159 16 179 16 24 12 65 -7 65 -5 0 -9 51 -9 115 l0 115 -50 36
c-27 20 -50 40 -50 45 0 18 -18 8 -24 -13z"/>
<path d="M4256 1460 c-37 -28 -46 -30 -123 -30 -46 0 -83 -3 -83 -7 0 -5 12
-26 25 -48 21 -33 25 -53 25 -116 0 -63 -3 -79 -20 -94 -11 -10 -20 -23 -20
-30 0 -7 9 -20 20 -30 17 -16 20 -31 20 -111 l0 -93 58 -43 c100 -75 137 -98
156 -98 19 0 180 109 204 138 9 12 12 74 12 231 l0 216 -102 73 c-55 39 -108
72 -117 72 -9 0 -34 -14 -55 -30z m105 -143 l34 -23 3 -167 2 -167 -41 -30
c-45 -32 -49 -31 -113 13 l-29 20 5 161 6 160 33 28 c40 34 56 35 100 5z"/>
<path d="M1086 800 l-120 -121 57 -57 57 -57 126 126 126 126 -48 52 c-26 28
-54 51 -62 51 -9 0 -69 -54 -136 -120z"/>
<path d="M4686 865 c-13 -34 -53 -80 -164 -190 -122 -121 -154 -147 -189 -156
-24 -6 -43 -13 -43 -16 0 -18 32 -73 42 -73 11 0 68 23 146 57 8 3 12 -4 12
-21 0 -43 49 -54 78 -18 19 25 14 41 -18 60 l-29 18 84 84 c48 48 85 78 85 69
0 -9 9 -24 20 -34 17 -15 24 -16 45 -7 42 19 31 82 -14 82 l-28 0 28 58 c41
86 44 107 13 120 -41 19 -50 14 -68 -33z"/>
<path d="M5061 816 c-38 -171 -312 -441 -596 -588 l-50 -26 -2194 -6 c-1733
-5 -2197 -9 -2203 -19 -12 -18 -10 -61 4 -75 9 -9 595 -12 2575 -12 l2562 0 3
378 c2 207 1 383 -1 390 -2 7 -20 12 -45 12 l-43 0 -12 -54z"/>
</g>
</svg>
