<?xml version="1.0" standalone="no"?>
<!DOCTYPE svg PUBLIC "-//W3C//DTD SVG 20010904//EN"
 "http://www.w3.org/TR/2001/REC-SVG-20010904/DTD/svg10.dtd">
<svg version="1.0" xmlns="http://www.w3.org/2000/svg"
 width="720.000000pt" height="303.000000pt" viewBox="0 0 720.000000 303.000000"
 preserveAspectRatio="xMidYMid meet">

<g transform="translate(0.000000,303.000000) scale(0.100000,-0.100000)"
fill="#000000" stroke="none">
<path d="M2820 2730 c-115 -15 -278 -81 -393 -159 -64 -44 -173 -145 -241
-225 -29 -35 -100 -176 -126 -251 -60 -173 -66 -400 -16 -568 60 -200 178
-371 369 -533 l37 -31 0 -99 c0 -54 4 -104 8 -110 4 -6 21 -19 38 -29 18 -10
48 -44 68 -75 21 -32 46 -66 56 -75 30 -28 124 -45 275 -51 250 -11 378 23
435 113 16 26 52 68 79 93 l50 45 6 83 c4 55 12 93 24 113 11 18 73 86 138
153 181 186 237 294 268 521 36 253 -10 469 -138 660 -94 140 -266 285 -419
355 -122 55 -372 89 -518 70z m355 -115 c93 -25 233 -98 307 -159 404 -335
424 -948 44 -1304 -102 -95 -208 -155 -351 -199 -84 -25 -322 -26 -415 0 -264
72 -485 277 -575 534 -114 327 -36 672 206 913 122 121 271 201 430 229 76 14
282 6 354 -14z m-611 -1717 c21 -30 20 -71 -2 -98 -28 -34 -42 -17 -42 49 0
76 14 92 44 49z m836 -53 c0 -51 -13 -64 -41 -39 -22 20 -27 90 -6 97 28 10
47 -13 47 -58z m-749 21 c12 -5 15 -17 11 -54 -5 -52 20 -144 33 -122 17 27
33 114 28 147 -4 26 -3 34 5 29 7 -4 12 -22 13 -39 l1 -32 9 33 c5 17 13 32
18 32 13 0 23 -48 15 -72 -4 -14 -2 -18 5 -14 6 4 11 15 12 24 2 32 17 -32 18
-75 2 -68 28 -53 50 27 29 108 71 149 71 73 1 -31 3 -35 11 -20 15 25 29 11
30 -31 1 -20 3 -29 6 -19 2 9 8 17 12 17 4 0 14 19 21 43 l13 42 8 -35 c4 -19
5 -38 2 -43 -2 -4 1 -6 9 -5 9 2 15 -13 18 -47 4 -41 7 -46 13 -27 5 12 12 20
17 17 4 -3 14 25 21 61 7 36 18 73 25 82 10 14 13 11 23 -23 6 -22 11 -53 12
-70 1 -41 12 -76 24 -78 5 -1 15 23 22 53 25 115 28 123 50 131 12 4 24 5 26
1 8 -14 -13 -174 -25 -199 -32 -66 -102 -83 -338 -84 -148 0 -229 9 -272 32
-31 17 -60 94 -65 179 -6 82 -2 87 48 66z m169 -26 c0 -11 -4 -20 -10 -20 -5
0 -10 9 -10 20 0 11 5 20 10 20 6 0 10 -9 10 -20z m189 8 c0 -7 -4 -22 -9 -33
-7 -17 -9 -15 -9 13 -1 17 4 32 9 32 6 0 10 -6 9 -12z m71 3 c0 -6 -4 -13 -10
-16 -5 -3 -10 1 -10 9 0 9 5 16 10 16 6 0 10 -4 10 -9z m-220 -55 c0 -19 -4
-38 -10 -41 -6 -4 -10 10 -10 34 0 23 5 41 10 41 6 0 10 -15 10 -34z m249 12
c-1 -13 -5 -34 -9 -48 -7 -20 -8 -16 -9 23 -1 26 4 47 9 47 6 0 10 -10 9 -22z
m102 -19 c-9 -23 -10 -22 -10 11 -1 23 2 31 9 24 7 -7 7 -19 1 -35z m-509 -34
c-4 -38 -7 -45 -13 -30 -10 25 -11 79 -2 89 14 13 20 -10 15 -59z"/>
<path d="M2844 2495 c-141 -31 -298 -121 -376 -217 -60 -75 -54 -75 28 1 120
112 306 191 452 191 91 0 249 -37 338 -80 93 -45 216 -152 279 -245 21 -30 40
-55 42 -55 2 0 -11 28 -29 63 -20 38 -66 95 -118 148 -71 72 -100 94 -180 133
-148 72 -292 93 -436 61z"/>
<path d="M2900 2203 c-210 -32 -374 -175 -425 -368 -41 -161 -5 -323 105 -469
l44 -58 -21 -37 c-11 -20 -32 -42 -47 -49 -32 -16 -30 -21 38 -66 61 -41 110
-62 57 -25 -45 31 -47 40 -15 78 50 60 55 59 137 -25 87 -88 92 -113 24 -107
-23 2 -47 10 -53 18 -10 14 -24 10 -24 -6 0 -4 36 -17 80 -28 188 -51 397 -17
557 91 63 43 87 70 55 61 -20 -5 -92 62 -92 84 0 9 18 49 41 89 33 61 45 74
65 74 30 0 41 24 28 59 -7 18 -6 39 2 66 30 96 10 238 -49 350 -43 82 -148
185 -229 223 -85 41 -193 59 -278 45z m-181 -458 c141 -50 206 -62 406 -74
178 -10 180 -11 202 -37 12 -15 29 -45 39 -66 l17 -38 -37 -54 c-47 -69 -120
-138 -177 -167 -143 -73 -326 -64 -460 22 -93 59 -179 205 -179 302 1 69 44
145 84 147 5 0 52 -16 105 -35z m566 -520 c57 -58 46 -82 -57 -120 -35 -13
-51 -15 -61 -7 -10 8 -16 6 -25 -9 -16 -26 -42 -24 -42 3 0 21 -1 21 -28 -5
-21 -21 -38 -27 -70 -27 -27 0 -42 5 -43 13 0 10 -2 10 -6 0 -7 -19 -103 -13
-103 6 1 24 18 29 60 20 25 -6 72 -7 105 -4 59 7 61 8 136 86 41 43 81 79 87
79 6 0 27 -16 47 -35z m-225 -45 c0 -20 -55 -32 -118 -26 -68 6 -86 12 -77 27
8 13 195 12 195 -1z"/>
<path d="M3200 1628 c0 -4 9 -8 20 -8 11 0 20 4 20 8 0 4 -9 8 -20 8 -11 0
-20 -4 -20 -8z"/>
<path d="M2626 1622 c-2 -4 0 -14 5 -22 8 -13 10 -13 18 0 10 15 6 30 -9 30
-5 0 -11 -4 -14 -8z"/>
<path d="M2822 1608 c-19 -19 -15 -93 7 -119 19 -23 20 -23 39 -5 30 26 36 69
17 105 -16 32 -42 40 -63 19z"/>
<path d="M3052 1608 c-21 -21 -15 -91 10 -118 l21 -23 19 23 c21 26 25 99 6
118 -7 7 -19 12 -28 12 -9 0 -21 -5 -28 -12z"/>
<path d="M2636 1561 c-4 -7 -5 -15 -2 -18 9 -9 19 4 14 18 -4 11 -6 11 -12 0z"/>
<path d="M3130 1397 c-53 -26 -80 -32 -147 -35 -80 -4 -107 2 -263 56 -11 4
-11 0 3 -15 34 -38 135 -76 218 -81 88 -5 153 12 237 61 92 55 57 65 -48 14z"/>
<path d="M3673 1785 c0 -38 2 -53 4 -32 2 20 2 52 0 70 -2 17 -4 1 -4 -38z"/>
<path d="M5094 1899 c-16 -17 -49 -41 -74 -54 -54 -28 -118 -90 -127 -122 -8
-34 -2 -35 42 -13 22 11 50 20 64 20 l24 0 -6 -172 c-4 -95 -10 -311 -13 -480
l-7 -306 -39 -18 c-45 -20 -118 -98 -118 -125 0 -23 3 -23 40 -4 24 12 254 65
283 65 14 0 127 112 127 127 0 16 -10 16 -85 -1 -45 -11 -62 -12 -68 -3 -9 13
-1 916 9 941 4 9 18 16 33 16 31 0 131 94 131 123 0 20 -6 20 -87 3 -67 -14
-73 -13 -73 16 0 27 -23 22 -56 -13z"/>
<path d="M1376 1848 c-41 -40 -100 -97 -131 -126 -55 -51 -57 -54 -50 -90 29
-152 34 -267 10 -275 -20 -8 -75 -86 -75 -108 0 -14 9 -19 43 -21 40 -3 42 -4
40 -33 -1 -16 -9 -131 -18 -255 -8 -124 -18 -246 -21 -272 -5 -37 -3 -48 8
-48 20 0 106 91 113 120 3 14 14 132 24 263 10 131 22 241 25 245 8 7 359 62
365 56 2 -2 -10 -34 -27 -71 -85 -186 -94 -375 -24 -506 36 -68 67 -87 138
-87 86 0 167 53 322 207 67 67 122 127 122 131 0 11 -116 122 -127 122 -5 0
-18 -7 -29 -15 -16 -11 -23 -30 -28 -82 -12 -116 -53 -177 -143 -213 -66 -25
-118 17 -158 128 -20 55 -21 71 -14 156 5 63 18 125 38 183 32 91 41 183 19
183 -7 0 -103 -14 -212 -30 -110 -16 -202 -27 -205 -25 -3 3 4 12 16 20 53 37
126 99 204 173 l86 81 34 -52 c41 -62 64 -69 103 -29 39 42 52 106 29 141 -10
14 -27 48 -39 76 -11 27 -28 51 -36 53 -22 4 -92 -66 -119 -119 -30 -60 -109
-140 -211 -215 -48 -35 -89 -64 -91 -64 -2 0 -7 53 -10 118 -4 64 -9 126 -12
137 -4 14 7 34 41 70 53 57 104 124 104 137 0 23 -37 1 -104 -64z"/>
<path d="M5410 1871 c-49 -49 -50 -51 -50 -113 0 -75 -10 -93 -108 -202 -87
-94 -93 -121 -31 -129 84 -11 83 -11 124 -442 31 -321 36 -357 52 -362 15 -5
100 72 108 98 4 11 -1 79 -9 152 -9 72 -25 236 -37 362 -12 127 -26 246 -33
265 -10 32 -33 50 -80 65 -18 5 -16 9 14 40 19 19 37 35 41 35 3 0 9 -13 12
-29 9 -43 122 -304 177 -408 27 -50 73 -131 104 -180 72 -117 263 -373 277
-373 7 0 36 24 66 53 l53 54 0 86 c0 48 2 87 5 87 3 0 19 -16 36 -35 17 -19
53 -51 80 -71 48 -35 49 -37 49 -87 0 -57 8 -97 19 -97 4 0 18 10 32 22 13 12
34 30 45 40 21 19 23 19 82 -1 113 -38 192 -21 274 61 79 78 99 112 105 175
12 131 -53 277 -247 558 -135 195 -203 309 -216 358 -8 35 -48 54 -73 35 -33
-26 -80 -81 -86 -99 -3 -10 1 -49 10 -86 25 -104 25 -106 40 -251 16 -152 20
-422 6 -422 -5 0 -18 18 -29 41 -16 32 -18 47 -11 72 12 42 11 47 -3 47 -7 0
-38 -27 -70 -61 l-58 -60 0 72 c0 188 -23 765 -30 773 -12 12 -73 -35 -99 -77
-21 -34 -21 -38 -10 -373 6 -186 9 -376 7 -422 l-3 -82 -85 127 c-136 204
-273 490 -348 733 -17 52 -35 96 -41 98 -6 2 -33 -19 -61 -47z m1082 -571 c47
-69 97 -146 112 -172 39 -67 86 -212 86 -264 l0 -44 -57 0 c-59 0 -147 33
-214 81 l-29 20 0 262 c0 149 4 257 9 252 5 -6 47 -66 93 -135z"/>
<path d="M4345 1888 c-11 -6 -32 -24 -46 -40 -21 -23 -34 -28 -73 -28 -41 0
-52 -5 -92 -42 -26 -24 -50 -52 -54 -64 -10 -24 12 -160 27 -175 21 -21 123
75 123 115 0 9 4 16 8 16 9 0 22 -186 22 -307 l0 -64 -60 -57 c-38 -37 -60
-66 -60 -80 0 -12 1 -22 3 -22 1 0 26 9 56 20 29 12 55 19 58 17 2 -3 7 -122
10 -266 3 -144 10 -264 15 -268 6 -3 35 21 65 52 l56 58 -7 223 -7 224 23 9
c13 5 59 15 103 22 73 11 84 16 128 58 48 45 73 79 64 87 -2 3 -72 -8 -156
-22 -83 -15 -154 -25 -157 -22 -3 4 -6 77 -7 164 l-2 158 133 12 c73 7 167 20
210 28 73 15 80 19 130 72 30 32 50 60 45 65 -5 5 -46 2 -93 -7 -47 -8 -163
-18 -257 -21 l-173 -6 0 46 c0 52 -7 60 -35 45z"/>
<path d="M959 1810 c-26 -27 -54 -50 -63 -50 -28 0 -84 27 -125 60 -46 37 -51
36 -146 -43 -33 -27 -64 -51 -70 -53 -125 -42 -181 -78 -211 -135 -23 -45 -17
-67 31 -114 33 -32 96 -68 229 -134 218 -107 325 -182 383 -268 74 -112 80
-198 16 -236 -70 -41 -263 -28 -364 24 -63 32 -134 104 -187 188 -41 66 -47
83 -49 134 -1 32 -4 61 -6 64 -8 8 -97 -78 -113 -108 -29 -57 -13 -134 49
-230 98 -153 234 -230 408 -231 136 -1 202 26 300 119 130 124 161 227 106
346 -55 118 -155 198 -399 318 -161 80 -248 129 -248 140 0 3 28 28 63 56 l63
51 38 -29 c52 -38 128 -62 203 -63 l63 -1 20 -47 c11 -26 25 -50 30 -53 16
-10 123 103 117 123 -3 9 -17 48 -31 85 -14 37 -26 83 -26 102 0 50 -24 45
-81 -15z"/>
<path d="M2144 1145 c-3 -8 0 -23 8 -33 23 -34 98 -112 107 -112 4 0 16 10 27
21 19 21 19 22 -45 80 -65 60 -87 70 -97 44z"/>
</g>
</svg>
