<svg version="1.0" xmlns="http://www.w3.org/2000/svg"
 width="1280" height="843" viewBox="0 0 1280 843"
 preserveAspectRatio="xMidYMid meet">

<g transform="translate(0.000000,843.000000) scale(0.100000,-0.100000)"
fill="#000000" stroke="none">
<path d="M5040 5375 c-47 -7 -110 -20 -140 -30 -77 -24 -215 -95 -253 -129
-18 -15 -47 -40 -66 -54 -51 -40 -141 -152 -183 -227 -81 -144 -113 -287 -105
-468 5 -138 40 -270 96 -365 17 -29 31 -55 31 -59 0 -9 133 -167 164 -193 16
-14 47 -38 70 -53 l41 -29 0 -101 0 -101 30 -15 c17 -8 37 -17 45 -21 8 -4 21
-28 28 -54 29 -102 123 -131 399 -124 160 4 173 6 226 31 58 29 77 50 96 109
10 29 20 39 49 49 20 6 41 19 47 28 5 9 8 55 6 103 -3 85 -3 86 26 104 165
106 315 321 369 529 24 91 26 112 21 230 -7 152 -34 261 -93 376 -79 153 -222
295 -379 376 -97 50 -158 69 -289 88 -113 17 -120 17 -236 0z m300 -241 c223
-68 379 -224 449 -447 16 -52 21 -94 21 -182 0 -63 -4 -124 -9 -137 -5 -13
-15 -43 -22 -68 -30 -101 -175 -300 -219 -300 -10 0 -28 16 -40 35 -12 19 -25
35 -30 35 -24 0 -17 36 13 74 133 167 156 329 72 511 -134 291 -525 357 -751
128 -61 -62 -107 -144 -125 -220 -33 -146 12 -320 113 -429 l41 -45 -34 -37
c-19 -20 -37 -41 -41 -46 -20 -26 -126 86 -182 194 -60 115 -77 181 -77 310 1
127 25 230 75 309 14 22 26 45 26 51 0 22 158 168 220 203 63 35 162 70 225
81 56 9 220 -3 275 -20z m-424 -634 c141 -64 326 -92 464 -72 65 10 100 3 100
-19 0 -6 14 -28 30 -49 17 -21 30 -42 30 -47 0 -26 -55 -109 -102 -154 -142
-136 -361 -153 -526 -39 -85 58 -161 188 -162 275 0 46 54 135 82 135 9 0 46
-14 84 -30z m28 -466 c13 -8 27 -26 30 -40 23 -91 193 -137 293 -79 26 16 51
41 63 64 25 51 46 71 73 71 32 0 76 -40 83 -76 6 -29 4 -31 -58 -56 -115 -47
-148 -53 -273 -52 -126 0 -188 14 -283 63 -51 26 -54 48 -11 90 35 35 49 38
83 15z m316 -45 c0 -24 -36 -38 -97 -39 -60 0 -113 15 -113 31 0 5 42 10 93
12 50 1 98 4 105 5 6 1 12 -3 12 -9z m-450 -284 c7 -8 8 -32 4 -65 -6 -48 -8
-51 -33 -48 -24 3 -26 7 -29 57 -2 29 -1 59 2 67 6 15 40 8 56 -11z m760 -49
c0 -46 -3 -56 -20 -61 -32 -10 -40 3 -40 61 0 53 0 54 30 54 30 0 30 -1 30
-54z m-613 3 c111 -29 312 -29 417 2 105 30 110 27 103 -69 -8 -105 -18 -127
-69 -154 -38 -20 -61 -23 -207 -26 -90 -2 -192 -1 -226 3 -102 11 -127 46
-139 198 -5 66 -4 67 20 67 13 0 59 -9 101 -21z"/>
<path d="M5026 4374 c-32 -32 -10 -134 29 -134 21 0 45 40 45 75 0 35 -24 75
-45 75 -7 0 -21 -7 -29 -16z"/>
<path d="M5237 4372 c-25 -28 -23 -97 5 -116 30 -21 55 -5 64 41 12 66 -33
115 -69 75z"/>
<path d="M5337 4185 c-59 -42 -134 -58 -219 -49 -58 6 -139 36 -180 66 -22 16
-35 3 -18 -18 34 -40 164 -84 249 -84 66 0 162 36 211 79 35 31 41 40 25 40
-11 -1 -41 -16 -68 -34z"/>
<path d="M3255 4749 c-4 -6 11 -32 34 -59 l41 -49 0 -189 0 -189 -30 -23 c-16
-13 -30 -27 -30 -31 0 -5 14 -24 30 -42 l30 -35 0 -246 c0 -155 4 -246 10
-246 5 0 37 21 71 48 33 26 71 54 84 62 31 19 35 34 35 170 l1 115 79 55 c44
30 86 56 95 58 9 2 47 -18 85 -44 l70 -48 0 -67 c0 -66 -1 -69 -36 -96 -20
-15 -45 -35 -55 -43 -16 -12 -19 -31 -22 -109 -2 -66 1 -95 10 -98 12 -5 229
137 251 165 13 17 18 275 6 319 -3 12 -36 42 -75 69 -79 53 -84 59 -67 73 7 6
28 22 46 37 l32 26 0 188 c0 104 -4 191 -9 194 -10 6 -65 -32 -129 -90 l-44
-39 -5 -90 c-5 -76 -8 -92 -26 -105 -12 -8 -62 -43 -112 -77 l-90 -63 -5 213
-5 213 -42 42 -41 42 -91 0 c-53 0 -93 -4 -96 -11z"/>
<path d="M7684 4749 c-3 -6 14 -32 40 -58 l46 -47 0 -177 0 -177 -36 -39 -35
-40 35 -36 36 -37 0 -160 0 -160 82 -84 c45 -46 87 -84 95 -84 10 0 13 68 13
359 l0 359 76 71 c42 39 82 71 90 71 12 0 14 -56 14 -345 l0 -346 94 -95 c70
-72 98 -94 109 -88 8 5 42 34 76 66 l61 56 0 95 c0 55 -4 99 -10 102 -6 4 -36
-16 -66 -44 -31 -28 -60 -49 -65 -45 -5 3 -9 65 -9 138 l0 133 35 38 36 37
-36 39 -35 39 0 229 c0 261 8 241 -95 241 -83 0 -99 -7 -181 -79 -38 -33 -75
-61 -81 -61 -8 0 -13 12 -13 29 0 21 -12 39 -45 70 l-45 41 -89 0 c-54 0 -92
-4 -97 -11z"/>
<path d="M2805 4692 c-44 -31 -115 -82 -158 -112 l-77 -54 0 -108 c0 -74 4
-110 13 -117 55 -46 76 -61 85 -61 5 0 15 -7 22 -15 6 -8 64 -49 128 -92 64
-43 121 -81 127 -85 78 -57 99 -75 99 -82 1 -14 -126 -104 -147 -105 -9 -1
-83 46 -163 104 -80 58 -150 103 -155 100 -5 -4 -9 -51 -9 -105 l0 -99 33 -24
c17 -13 61 -44 97 -70 36 -26 85 -62 110 -80 83 -62 100 -65 142 -24 7 7 40
32 73 55 149 103 180 126 187 136 4 6 8 59 8 118 l0 107 -37 26 c-71 50 -358
248 -395 273 -21 14 -38 31 -38 37 0 10 63 62 122 100 27 17 28 16 65 -12 21
-16 56 -41 78 -56 22 -14 75 -51 117 -81 42 -30 79 -51 82 -48 3 3 6 51 6 106
l0 101 -152 109 c-83 60 -158 110 -167 112 -9 2 -52 -22 -96 -54z"/>
<path d="M6789 4734 c-7 -9 -40 -33 -74 -55 -53 -33 -62 -36 -76 -23 -11 10
-43 14 -122 14 -59 0 -107 -4 -107 -9 0 -4 15 -28 33 -52 55 -72 57 -80 57
-211 l0 -124 -30 -29 c-16 -16 -30 -33 -30 -38 0 -5 14 -25 30 -44 l30 -34 0
-239 c0 -131 4 -241 9 -244 5 -3 26 8 47 24 22 17 60 46 87 66 26 20 48 37 49
37 1 1 4 81 7 177 l6 175 93 3 c50 1 92 5 92 8 0 12 -36 73 -71 121 -33 44
-44 52 -76 55 l-38 3 -5 58 c-3 31 -3 64 0 71 5 14 112 96 125 96 9 0 113 -68
148 -97 37 -30 50 -29 103 7 l44 31 0 89 c0 93 -9 113 -38 87 -9 -8 -27 -20
-39 -26 -28 -14 -36 -10 -135 64 -77 58 -97 65 -119 39z"/>
<path d="M8953 4706 c-81 -59 -100 -68 -126 -60 -12 4 -62 8 -110 9 -66 2 -90
-1 -94 -11 -2 -7 14 -39 36 -70 l41 -57 0 -122 0 -121 -30 -29 c-16 -16 -30
-34 -30 -40 0 -6 14 -24 30 -40 l30 -29 0 -136 c0 -149 -2 -145 70 -193 14
-10 45 -33 70 -52 25 -19 52 -38 60 -42 8 -3 30 -19 49 -35 64 -56 69 -55 153
4 42 29 110 77 152 107 42 30 81 62 87 72 5 10 9 155 9 338 l0 321 -86 62
c-47 35 -118 87 -158 115 -39 29 -76 53 -82 53 -7 0 -39 -20 -71 -44z m134
-218 c26 -17 53 -36 58 -43 6 -7 9 -104 7 -258 l-3 -247 -54 -40 c-30 -22 -61
-40 -70 -40 -9 0 -43 19 -76 41 l-59 42 0 242 c0 177 3 246 13 258 18 24 99
77 119 77 9 0 39 -14 65 -32z"/>
<path d="M7310 4511 l0 -230 -30 -33 c-16 -18 -30 -36 -30 -41 0 -5 14 -25 30
-44 l30 -34 0 -177 0 -178 51 -39 c97 -75 124 -94 132 -95 4 0 7 110 7 245 l0
244 30 34 c17 19 30 39 30 44 0 5 -13 23 -30 41 l-30 33 0 163 0 163 -64 47
c-34 25 -71 55 -81 66 -42 47 -45 34 -45 -209z"/>
<path d="M4192 3717 c-100 -100 -182 -189 -182 -197 0 -23 144 -163 164 -158
13 2 204 186 340 327 l39 40 -74 76 c-41 42 -81 81 -90 85 -12 7 -57 -33 -197
-173z"/>
<path d="M9607 3873 c-2 -4 -14 -37 -26 -73 -21 -64 -27 -72 -239 -281 -214
-213 -218 -216 -282 -234 -36 -10 -67 -20 -69 -21 -2 -2 7 -31 19 -64 14 -38
27 -59 35 -56 7 2 42 14 78 25 63 19 145 63 159 84 4 6 4 -7 1 -30 -4 -33 -1
-45 16 -62 59 -59 158 25 108 93 -8 10 -30 21 -51 25 l-36 6 138 138 c125 125
138 135 134 107 -10 -66 71 -105 116 -57 48 51 12 122 -57 115 l-37 -3 33 43
c18 23 37 62 43 85 6 23 15 58 21 77 5 19 9 39 9 43 0 15 -106 52 -113 40z"/>
<path d="M10152 3750 c-49 -265 -422 -641 -887 -896 l-90 -49 -3300 -5 -3300
-5 -3 -69 c-2 -49 1 -72 10 -77 7 -5 1747 -9 3866 -9 l3852 0 0 575 c0 316 1
578 3 583 1 4 -30 8 -69 10 l-70 3 -12 -61z"/>
</g>
</svg>
