<?xml version="1.0" standalone="no"?>
<!DOCTYPE svg PUBLIC "-//W3C//DTD SVG 20010904//EN"
 "http://www.w3.org/TR/2001/REC-SVG-20010904/DTD/svg10.dtd">
<svg version="1.0" xmlns="http://www.w3.org/2000/svg"
 width="238.000000pt" height="83.000000pt" viewBox="0 0 238.000000 83.000000"
 preserveAspectRatio="xMidYMid meet">

<g transform="translate(0.000000,83.000000) scale(0.100000,-0.100000)"
fill="#000000" stroke="none">
<path d="M1234 651 c-11 -10 -38 -66 -58 -125 -21 -58 -41 -108 -45 -111 -4
-2 -23 48 -41 111 -19 63 -37 120 -41 126 -11 17 -34 -5 -67 -66 -15 -28 -34
-61 -42 -72 -12 -19 -11 -25 7 -47 17 -23 20 -41 20 -142 0 -64 3 -119 7 -122
3 -3 12 0 21 7 21 18 22 277 1 305 -14 20 -6 55 13 55 4 0 23 -51 41 -112 18
-62 37 -121 42 -132 10 -18 11 -18 31 3 12 11 34 53 49 93 24 65 27 69 27 38
2 -90 26 -280 36 -280 20 0 35 23 35 54 l0 30 28 -27 c41 -39 84 -49 135 -31
78 28 130 96 120 157 -7 43 -25 53 -49 26 -15 -17 -16 -24 -6 -39 21 -34 15
-75 -13 -88 -78 -36 -169 9 -169 83 0 42 30 75 69 75 29 0 71 33 61 48 -4 7
-15 12 -24 12 -26 0 -82 38 -82 55 0 18 5 18 29 5 10 -5 44 -13 75 -18 48 -8
58 -6 72 9 13 15 14 23 3 56 -6 21 -14 44 -16 52 -5 20 -43 -16 -43 -41 0 -27
-31 -22 -80 13 l-44 32 -23 -27 c-21 -25 -28 -58 -24 -111 1 -11 13 -30 27
-43 l25 -22 -27 -33 c-15 -17 -33 -45 -39 -61 -12 -28 -13 -24 -20 57 -7 81
-5 124 12 230 6 41 -3 46 -33 18z"/>
<path d="M1597 642 c-10 -10 -17 -29 -17 -41 0 -13 -13 -39 -30 -58 -33 -37
-39 -63 -15 -63 21 0 22 -6 40 -154 8 -71 17 -131 21 -135 3 -3 14 4 23 15 18
23 18 25 -4 232 -3 28 -2 52 2 52 5 0 17 -21 27 -46 22 -53 124 -212 150 -234
16 -13 20 -12 38 10 18 23 20 34 13 137 -4 68 -3 113 2 113 5 0 20 -12 34 -26
22 -23 24 -36 27 -130 3 -91 6 -106 23 -115 32 -16 82 6 132 60 81 87 112 248
65 341 -24 47 -44 56 -61 29 -8 -12 -5 -30 11 -67 34 -78 26 -200 -18 -282
-15 -28 -54 -42 -84 -30 -23 8 -24 11 -19 92 4 76 3 87 -22 132 l-26 49 29 31
c32 34 45 63 36 78 -8 13 -44 -21 -44 -43 0 -17 -67 -89 -82 -89 -5 0 -8 36
-8 80 0 44 -4 80 -8 80 -5 0 -17 -9 -26 -19 -15 -17 -16 -35 -10 -172 l7 -154
-21 18 c-26 24 -115 197 -138 271 -10 31 -21 56 -24 56 -4 0 -14 -8 -23 -18z
m12 -125 c1 -5 -6 -1 -15 7 -8 9 -12 21 -8 28 5 8 10 6 15 -8 4 -10 8 -23 8
-27z"/>
<path d="M383 563 c-35 -2 -63 -7 -63 -11 0 -6 103 -3 385 11 39 2 -4 3 -95 3
-91 0 -193 -1 -227 -3z"/>
<path d="M307 393 c84 -2 222 -2 305 0 84 1 16 3 -152 3 -168 0 -236 -2 -153
-3z"/>
<path d="M127 229 c5 -5 81 -11 169 -13 l159 -5 -150 9 c-82 5 -159 11 -169
14 -12 3 -15 1 -9 -5z"/>
</g>
</svg>
